<svg width="32" height="32" viewBox="0 0 32 32" fill="none" xmlns="http://www.w3.org/2000/svg">
<rect width="32" height="32" fill="white"/>
<path d="M9.4834 15.2129V15.3496C9.4834 16.2018 9.6862 16.8991 10.0918 17.4414C10.502 17.9792 11.0306 18.248 11.6777 18.248C12.7031 18.248 13.3434 17.6738 13.5986 16.5254H13.9746C13.6419 18.2982 12.7852 19.1846 11.4043 19.1846C10.584 19.1846 9.9209 18.877 9.41504 18.2617C8.90918 17.6465 8.65625 16.8421 8.65625 15.8486C8.65625 14.8506 8.90918 14.0371 9.41504 13.4082C9.9209 12.7793 10.5749 12.4648 11.377 12.4648C12.0651 12.4648 12.6143 12.6973 13.0244 13.1621C13.4391 13.6224 13.6715 14.2627 13.7217 15.083L13.7285 15.2129H9.4834ZM9.53125 14.7002H12.5869C12.5869 13.6475 12.1084 13.1211 11.1514 13.1211C10.249 13.1211 9.70898 13.6475 9.53125 14.7002ZM16.8662 12.335V18.5967C16.8662 20.4196 16.1257 21.3311 14.6445 21.3311C13.847 21.3311 13.4482 21.0645 13.4482 20.5312C13.4482 20.1576 13.6191 19.9707 13.9609 19.9707C14.1706 19.9707 14.3301 20.0505 14.4395 20.21L14.4941 20.292C14.6764 20.5563 14.8929 20.6885 15.1436 20.6885C15.695 20.6885 15.9707 20.3763 15.9707 19.752V14.3105C15.9707 13.8275 15.7793 13.5859 15.3965 13.5859C15.2598 13.5859 15.0638 13.6224 14.8086 13.6953V13.3604C15.7109 13.1097 16.3968 12.7679 16.8662 12.335ZM16.9551 10.3252C16.9551 10.8174 16.7044 11.0635 16.2031 11.0635C15.6927 11.0635 15.4375 10.8105 15.4375 10.3047C15.4375 9.79883 15.6904 9.5459 16.1963 9.5459C16.7021 9.5459 16.9551 9.80566 16.9551 10.3252ZM20.749 18.3984C20.749 18.9225 20.487 19.1846 19.9629 19.1846C19.4297 19.1846 19.1631 18.9157 19.1631 18.3779C19.1631 17.8538 19.4274 17.5918 19.9561 17.5918C20.4847 17.5918 20.749 17.8607 20.749 18.3984Z" fill="black"/>
</svg>
